<?xml version="1.0" encoding="iso-8859-1"?>
<!-- Generator: Adobe Illustrator 19.0.0, SVG Export Plug-In . SVG Version: 6.00 Build 0)  -->
<svg version="1.1" id="Layer_1" xmlns="http://www.w3.org/2000/svg" xmlns:xlink="http://www.w3.org/1999/xlink" x="0px" y="0px"
	 viewBox="0 0 491.52 491.52" style="enable-background:new 0 0 491.52 491.52;" xml:space="preserve">
<g>
	<g>
		<g>
			<path d="M406.897,0H84.644C37.901,0,0,37.884,0,84.623v322.273c0,46.739,37.901,84.623,84.644,84.623h322.253
				c46.741,0,84.623-37.882,84.623-84.623V84.623C491.52,37.882,453.638,0,406.897,0z M450.56,84.623V225.28H266.248V40.96h140.648
				C431.016,40.96,450.56,60.504,450.56,84.623z M84.644,40.96h140.644v184.32H40.96V84.623C40.96,60.51,60.518,40.96,84.644,40.96z
				 M40.96,406.897V266.24h184.328v184.32H84.644C60.518,450.56,40.96,431.01,40.96,406.897z M406.897,450.56H266.248V266.24H450.56
				v140.657C450.56,431.016,431.016,450.56,406.897,450.56z"/>
			
				<rect x="322.204" y="107.156" transform="matrix(-0.7071 0.7071 -0.7071 -0.7071 713.212 -8.7019)" width="72.408" height="72.408"/>
			<polygon points="133.128,286.72 81.928,409.6 184.328,409.6 			"/>
			<path d="M133.128,184.32c28.283,0,51.2-22.917,51.2-51.2c0-28.283-22.917-51.2-51.2-51.2c-28.283,0-51.2,22.917-51.2,51.2
				C81.928,161.403,104.845,184.32,133.128,184.32z"/>
			<polygon points="354.517,304.81 337.498,339.298 299.426,344.828 326.971,371.677 320.459,409.606 354.517,391.707 
				388.575,409.606 382.063,371.677 409.608,344.828 371.536,339.298 			"/>
		</g>
	</g>
</g>
<g>
</g>
<g>
</g>
<g>
</g>
<g>
</g>
<g>
</g>
<g>
</g>
<g>
</g>
<g>
</g>
<g>
</g>
<g>
</g>
<g>
</g>
<g>
</g>
<g>
</g>
<g>
</g>
<g>
</g>
</svg>
