<?xml version='1.0' encoding='utf-8'?>
<!DOCTYPE svg PUBLIC '-//W3C//DTD SVG 1.1//EN' 'http://www.w3.org/Graphics/SVG/1.1/DTD/svg11.dtd'>
<svg version="1.1" xmlns="http://www.w3.org/2000/svg" viewBox="0 0 512 512" xmlns:xlink="http://www.w3.org/1999/xlink" enable-background="new 0 0 512 512">
  <g>
    <g>
      <path d="m203.9,298.2l124.7-71.9c9.5-5 17.4-23.5 0-35.4l-124.7-71.9c-8.1-5.3-28.3-3.9-30.6,17.7v143.9c2,23.4 26.6,21.6 30.6,17.6zm10.2-126.2l63.4,36.6-63.4,36.6v-73.2z"/>
      <path d="M458.6,11H53.4C30,11,11,30,11,53.4v310.3c0,23.4,19,42.4,42.4,42.4h112.9l-52.2,61.2c-14.2,19,5.6,35.5,15.5,33.7h252.6    c10.7,1.6,29.5-14.6,15.5-33.7l-52.1-61.2h112.9c23.4,0,42.4-19,42.4-42.4V53.4C501,30,482,11,458.6,11z M173.9,460.2l45.6-53.5    c0.1-0.2,0.2-0.3,0.4-0.5H292l46,54H173.9z M459.7,365.3H51.8V53.4h407.8V365.3z"/>
    </g>
  </g>
</svg>
