<?xml version="1.0" encoding="iso-8859-1"?>
<!-- Generator: Adobe Illustrator 19.0.0, SVG Export Plug-In . SVG Version: 6.00 Build 0)  -->
<svg version="1.1" id="Layer_1" xmlns="http://www.w3.org/2000/svg" xmlns:xlink="http://www.w3.org/1999/xlink" x="0px" y="0px"
	 viewBox="0 0 512 512" style="enable-background:new 0 0 512 512;" xml:space="preserve">
<path style="fill:#8AD5DD;" d="M95.44,387.568L255.952,512L417.04,388V0H94.96L95.44,387.568z M299.592,409.176
	c-11.648,11.648-27.128,18.056-43.592,18.056s-31.952-6.416-43.592-18.056c-24.04-24.04-24.04-63.152,0-87.192
	c11.648-11.648,27.128-18.056,43.592-18.056c16.472,0,31.952,6.416,43.592,18.056C323.632,346.032,323.632,385.144,299.592,409.176z
	 M231.352,131.624L256.04,51.92l24.688,79.704h79.888l-64.632,49.256l24.688,79.72l-64.632-49.272L191.408,260.6l24.688-79.72
	l-64.632-49.256L231.352,131.624L231.352,131.624z"/>
<path style="fill:#FFFFFF;" d="M285.456,336.136c-8.136-8.136-18.8-12.2-29.456-12.2s-21.32,4.064-29.456,12.2
	c-16.264,16.264-16.264,42.64,0,58.904c8.136,8.136,18.792,12.2,29.456,12.2c10.656,0,21.32-4.064,29.456-12.2
	C301.72,378.768,301.72,352.4,285.456,336.136z"/>
<path style="fill:#6CB8BC;" d="M256,303.936c-16.464,0-31.952,6.416-43.592,18.056c-24.04,24.04-24.04,63.152,0,87.192
	c11.648,11.648,27.128,18.056,43.592,18.056c16.472,0,31.952-6.416,43.592-18.056c24.04-24.04,24.04-63.152,0-87.192
	C287.952,310.344,272.464,303.936,256,303.936z M226.544,395.04c-16.264-16.264-16.264-42.64,0-58.904
	c8.136-8.136,18.8-12.2,29.456-12.2s21.32,4.064,29.456,12.2c16.264,16.264,16.264,42.64,0,58.904
	c-8.136,8.136-18.792,12.2-29.456,12.2C245.344,407.24,234.68,403.168,226.544,395.04z"/>
<polygon style="fill:#2D2D2D;" points="191.408,260.6 256.04,211.328 320.672,260.6 295.984,180.88 360.624,131.624 
	280.736,131.624 256.04,51.928 231.352,131.624 151.464,131.624 216.096,180.88 "/>
<g>
</g>
<g>
</g>
<g>
</g>
<g>
</g>
<g>
</g>
<g>
</g>
<g>
</g>
<g>
</g>
<g>
</g>
<g>
</g>
<g>
</g>
<g>
</g>
<g>
</g>
<g>
</g>
<g>
</g>
</svg>
